<?xml version="1.0" standalone="no"?>
<!DOCTYPE svg PUBLIC "-//W3C//DTD SVG 20010904//EN"
 "http://www.w3.org/TR/2001/REC-SVG-20010904/DTD/svg10.dtd">
<svg version="1.0" xmlns="http://www.w3.org/2000/svg"
 width="1073.000000pt" height="1073.000000pt" viewBox="0 0 1073.000000 1073.000000"
 preserveAspectRatio="xMidYMid meet">
<metadata>
Created by potrace 1.14, written by Peter Selinger 2001-2017
</metadata>
<g transform="translate(0.000000,1073.000000) scale(0.100000,-0.100000)"
fill="#000000" stroke="none">
<path d="M0 9335 l0 -1395 280 0 280 0 0 1110 0 1110 1225 0 1225 0 0 285 0
285 -1505 0 -1505 0 0 -1395z"/>
<path d="M7710 10445 l0 -285 1225 0 1225 0 0 -1110 0 -1110 285 0 285 0 0
1395 0 1395 -1510 0 -1510 0 0 -285z"/>
<path d="M4860 7882 c36 -39 396 -413 800 -830 l735 -758 3 800 c1 439 1 801
-1 802 -6 7 -193 24 -357 34 -96 6 -416 13 -710 17 l-535 6 65 -71z"/>
<path d="M3615 7928 c-176 -4 -412 -11 -525 -16 l-205 -7 -3 -522 -2 -523
1326 0 c849 0 1324 3 1322 10 -1 5 -250 248 -553 539 l-550 530 -245 -1 c-135
-1 -389 -5 -565 -10z"/>
<path d="M6629 7838 c-3 -9 -37 -2534 -34 -2537 5 -4 1408 1407 1414 1421 6
18 -48 143 -103 236 -224 379 -595 650 -1150 841 -119 41 -125 43 -127 39z"/>
<path d="M3590 6644 c-366 -6 -675 -12 -688 -13 l-22 -1 0 -810 c1 -445 4
-810 8 -810 4 0 378 371 832 825 l825 825 -145 -2 c-80 0 -444 -7 -810 -14z"/>
<path d="M7261 5663 c-448 -439 -909 -892 -1025 -1006 l-211 -208 409 5 c225
3 533 6 685 6 l276 0 130 118 c196 179 299 312 395 515 85 177 140 376 172
612 23 174 15 755 -10 755 -4 0 -373 -359 -821 -797z"/>
<path d="M3432 5243 l-542 -558 0 -902 0 -903 545 0 545 0 0 573 c0 316 3 973
7 1460 4 561 3 887 -3 887 -5 0 -254 -251 -552 -557z"/>
<path d="M4194 4335 c3 -264 9 -699 12 -967 l7 -488 945 0 944 0 -321 328
c-176 180 -607 615 -956 967 l-636 640 5 -480z"/>
<path d="M5041 4253 c4 -8 1211 -1198 1335 -1315 l71 -67 818 -1 c691 0 817 1
812 13 -3 8 -190 316 -416 684 l-411 671 -598 6 c-328 3 -826 8 -1106 11 -279
3 -506 2 -505 -2z"/>
<path d="M0 1615 l0 -1615 1505 0 1505 0 0 285 0 285 -1225 0 -1225 0 0 1330
0 1330 -280 0 -280 0 0 -1615z"/>
<path d="M10160 1900 l0 -1330 -1225 0 -1225 0 0 -285 0 -285 1510 0 1510 0 0
1615 0 1615 -285 0 -285 0 0 -1330z"/>
</g>
</svg>
